<?xml version="1.0" standalone="no"?>
<!DOCTYPE svg PUBLIC "-//W3C//DTD SVG 20010904//EN"
 "http://www.w3.org/TR/2001/REC-SVG-20010904/DTD/svg10.dtd">
<svg version="1.0" xmlns="http://www.w3.org/2000/svg"
 width="67.000000pt" height="57.000000pt" viewBox="0 0 67.000000 57.000000"
 preserveAspectRatio="xMidYMid meet">
<metadata>
Created by potrace 1.10, written by Peter Selinger 2001-2011
</metadata>
<g transform="translate(0.000000,57.000000) scale(0.100000,-0.100000)"
fill="#000000" stroke="none">
<path d="M0 285 l0 -285 335 0 335 0 0 285 0 285 -335 0 -335 0 0 -285z m354
156 l23 -22 38 25 c71 49 167 25 151 -37 -4 -17 0 -30 14 -42 24 -21 25 -46 6
-84 -16 -29 -73 -73 -118 -90 -35 -13 -35 -26 -1 -43 14 -7 28 -18 30 -24 4
-12 -23 -44 -36 -44 -16 0 -63 43 -71 66 -8 21 -12 23 -34 12 -21 -9 -30 -7
-53 7 -15 10 -34 27 -41 37 -13 18 -16 16 -54 -27 -57 -65 -115 -60 -138 11
-10 30 -9 43 6 82 10 26 17 60 15 75 -3 36 60 100 116 115 56 16 120 8 147
-17z"/>
<path d="M442 433 c-36 -17 -72 -57 -72 -79 0 -24 15 -15 27 16 13 35 68 71
102 68 38 -4 36 -25 -4 -62 l-37 -34 38 4 c22 3 45 1 53 -5 24 -16 -22 -76
-81 -105 -28 -14 -53 -25 -54 -23 -1 1 0 14 3 29 4 20 14 29 42 37 l36 10 -32
-3 c-18 -1 -33 1 -33 5 0 5 11 34 25 65 28 64 28 64 16 64 -9 0 -61 -110 -61
-131 0 -17 -37 -42 -50 -34 -6 4 -8 -8 -5 -29 2 -20 0 -36 -5 -36 -15 0 -64
47 -83 79 -18 31 -18 31 5 40 34 13 88 60 88 77 0 8 -9 23 -20 34 -39 39 -150
21 -205 -34 -25 -25 -33 -56 -15 -56 6 0 10 6 10 13 0 22 53 66 75 63 17 -3
20 -10 18 -59 -3 -91 -60 -198 -97 -184 -24 9 -30 69 -12 112 14 32 14 36 1
25 -46 -38 -32 -150 19 -150 31 0 76 53 92 107 l11 38 18 -35 c9 -19 27 -45
38 -58 21 -23 61 -30 72 -12 12 19 33 10 40 -17 9 -37 34 -63 59 -62 21 0 21
0 1 9 -25 10 -40 28 -47 56 -5 18 3 25 48 44 52 21 114 78 114 103 0 20 -22
37 -47 37 l-24 0 22 30 c18 24 20 32 9 45 -16 19 -56 19 -98 -2z m-124 -19
c12 -8 22 -21 22 -28 0 -17 -39 -52 -72 -65 -26 -10 -26 -9 -21 24 4 23 0 43
-11 60 l-16 25 38 0 c20 0 48 -7 60 -16z m82 -184 c0 -11 -7 -20 -15 -20 -17
0 -18 2 -9 24 9 23 24 20 24 -4z"/>
<path d="M270 380 c0 -22 7 -25 29 -11 16 10 6 31 -15 31 -8 0 -14 -9 -14 -20z"/>
<path d="M163 353 c-10 -15 -19 -36 -20 -48 -2 -11 -6 -40 -9 -64 -5 -33 -3
-42 7 -39 21 7 49 71 56 127 7 58 -6 67 -34 24z"/>
<path d="M323 309 c-38 -24 -40 -30 -14 -53 16 -15 19 -15 25 -1 3 8 17 20 31
25 28 11 33 35 9 44 -19 7 -13 9 -51 -15z"/>
<path d="M490 310 c0 -5 7 -10 15 -10 8 0 15 5 15 10 0 6 -7 10 -15 10 -8 0
-15 -4 -15 -10z"/>
</g>
</svg>
