<?xml version="1.0" standalone="no"?>
<!DOCTYPE svg PUBLIC "-//W3C//DTD SVG 20010904//EN"
 "http://www.w3.org/TR/2001/REC-SVG-20010904/DTD/svg10.dtd">
<svg version="1.0" xmlns="http://www.w3.org/2000/svg"
 width="67.000000pt" height="57.000000pt" viewBox="0 0 67.000000 57.000000"
 preserveAspectRatio="xMidYMid meet">
<metadata>
Created by potrace 1.10, written by Peter Selinger 2001-2011
</metadata>
<g transform="translate(0.000000,57.000000) scale(0.100000,-0.100000)"
fill="#000000" stroke="none">
<path d="M459 470 c-14 -4 -38 -15 -52 -25 -25 -16 -27 -16 -53 4 -80 63 -290
-26 -268 -114 3 -11 -2 -34 -10 -50 -57 -109 47 -209 130 -125 35 35 39 36 71
10 16 -12 41 -20 64 -20 28 0 41 -5 49 -20 16 -29 56 -53 79 -45 29 9 34 35
11 60 -11 12 -20 24 -20 28 0 3 22 18 49 32 83 46 118 111 82 157 -12 14 -21
40 -21 57 0 50 -46 71 -111 51z m81 -35 c11 -13 9 -21 -9 -45 l-22 -30 24 0
c31 0 51 -23 42 -49 -9 -30 -84 -90 -126 -101 -32 -9 -36 -14 -32 -33 8 -31
34 -59 50 -53 7 3 13 1 13 -4 0 -16 -36 -11 -53 8 -8 9 -19 29 -22 45 -7 27
-28 36 -40 17 -14 -22 -54 -9 -84 27 -17 21 -31 43 -31 50 0 26 -19 12 -25
-18 -10 -43 -61 -99 -92 -99 -50 0 -64 112 -18 150 19 16 19 10 0 -26 -8 -16
-15 -37 -15 -46 0 -27 22 -68 37 -68 20 0 70 86 82 141 15 67 14 82 -5 105 -8
10 -12 13 -8 5 5 -10 3 -12 -5 -6 -14 8 -71 -41 -71 -62 0 -7 -4 -13 -10 -13
-18 0 -10 36 13 58 70 66 227 69 227 3 0 -24 -36 -60 -77 -77 -39 -17 -36 -28
21 -88 42 -46 56 -46 51 -1 -4 24 -1 33 8 30 18 -6 43 16 50 46 11 43 47 119
57 119 13 0 13 -1 -9 -51 -35 -82 -35 -86 1 -83 32 3 32 3 -4 -7 -30 -9 -38
-16 -38 -35 0 -28 10 -30 49 -10 30 16 91 80 91 96 0 14 -46 23 -77 15 -27 -6
-27 -5 10 29 45 41 44 62 -2 60 -42 -2 -81 -29 -94 -65 -12 -30 -27 -39 -27
-16 0 61 134 125 170 82z m-370 -172 c-15 -34 -23 -44 -29 -34 -5 8 -5 26 -1
42 5 15 6 30 2 33 -3 3 5 18 19 32 l24 26 3 -26 c2 -14 -6 -47 -18 -73z m181
16 c-18 -15 -27 -17 -35 -9 -8 8 -4 17 13 31 18 15 27 17 35 9 8 -8 4 -17 -13
-31z"/>
<path d="M236 413 c5 -10 8 -37 8 -59 1 -33 4 -40 16 -36 29 11 61 35 72 55 9
17 7 24 -12 39 -12 10 -38 18 -57 18 -30 0 -34 -3 -27 -17z"/>
</g>
</svg>
